<svg width="27" height="26" viewBox="0 0 27 26" fill="none" xmlns="http://www.w3.org/2000/svg">
<path d="M25.0014 0H1.99336C0.891211 0 0 0.837891 0 1.87383V24.1211C0 25.157 0.891211 26 1.99336 26H25.0014C26.1035 26 27 25.157 27 24.1262V1.87383C27 0.837891 26.1035 0 25.0014 0ZM8.01035 22.1559H4.00254V9.74492H8.01035V22.1559ZM6.00645 8.05391C4.71973 8.05391 3.68086 7.05352 3.68086 5.81953C3.68086 4.58555 4.71973 3.58516 6.00645 3.58516C7.28789 3.58516 8.32676 4.58555 8.32676 5.81953C8.32676 7.04844 7.28789 8.05391 6.00645 8.05391ZM23.008 22.1559H19.0055V16.123C19.0055 14.6859 18.9791 12.8324 16.9225 12.8324C14.8395 12.8324 14.523 14.4016 14.523 16.0215V22.1559H10.5258V9.74492H14.3648V11.441H14.4176C14.9502 10.466 16.258 9.43516 18.2039 9.43516C22.2592 9.43516 23.008 12.0047 23.008 15.3461V22.1559Z" fill="#424040"/>
</svg>
