<svg width="35" height="37" viewBox="0 0 35 37" fill="none" xmlns="http://www.w3.org/2000/svg">
<path fill-rule="evenodd" clip-rule="evenodd" d="M35 18.3922C35 28.4778 27.165 36.6538 17.5 36.6538C7.83502 36.6538 0 28.4778 0 18.3922C0 8.30662 7.83502 0.130615 17.5 0.130615C27.165 0.130615 35 8.30662 35 18.3922ZM18.1271 13.6121C16.425 14.3509 13.0231 15.88 7.92151 18.1994C7.09309 18.5432 6.65913 18.8795 6.61962 19.2084C6.55285 19.7641 7.21979 19.983 8.12798 20.281C8.25151 20.3215 8.37952 20.3635 8.51074 20.408C9.40426 20.7111 10.6062 21.0657 11.231 21.0798C11.7978 21.0925 12.4304 20.8487 13.1289 20.3483C17.8954 16.9906 20.356 15.2935 20.5105 15.257C20.6194 15.2311 20.7705 15.1987 20.8728 15.2936C20.9751 15.3885 20.965 15.5682 20.9542 15.6165C20.8881 15.9104 18.2702 18.4502 16.9154 19.7645C16.493 20.1743 16.1934 20.4649 16.1322 20.5313C15.995 20.68 15.8552 20.8207 15.7208 20.9559C14.8907 21.7909 14.2682 22.4171 15.7553 23.4397C16.4699 23.9311 17.0417 24.3375 17.6122 24.7429C18.2353 25.1857 18.8567 25.6273 19.6607 26.1772C19.8655 26.3174 20.0612 26.4629 20.2517 26.6047C20.9768 27.1441 21.6282 27.6287 22.4329 27.5514C22.9006 27.5065 23.3836 27.0476 23.6289 25.6791C24.2086 22.445 25.3482 15.4376 25.6116 12.55C25.6346 12.297 25.6056 11.9732 25.5823 11.8311C25.559 11.689 25.5103 11.4865 25.3332 11.3365C25.1236 11.159 24.7999 11.1216 24.6551 11.1242C23.9969 11.1363 22.9871 11.5028 18.1271 13.6121Z" fill="#424040"/>
</svg>
