<svg width="32" height="34" viewBox="0 0 32 34" fill="none" xmlns="http://www.w3.org/2000/svg">
<path d="M0 33.3927L2.26007 24.8177C0.865444 22.3077 0.13263 19.4624 0.13397 16.5447C0.137989 7.42291 7.28527 0 16.067 0C20.3286 0.00139136 24.3289 1.72529 27.3379 4.85307C30.3455 7.98084 32.0013 12.1382 32 16.56C31.996 25.6831 24.8487 33.106 16.067 33.106C13.401 33.1046 10.7738 32.4104 8.44679 31.0913L0 33.3927ZM8.83798 28.0957C11.0833 29.4801 13.2268 30.3094 16.0616 30.3108C23.3603 30.3108 29.3059 24.1415 29.3099 16.5572C29.3126 8.95758 23.3951 2.79663 16.0723 2.79385C8.76832 2.79385 2.82676 8.96314 2.82408 16.5461C2.82274 19.6418 3.69622 21.9598 5.16319 24.385L3.82483 29.4607L8.83798 28.0957ZM24.0931 20.4934C23.994 20.3208 23.7287 20.2179 23.3295 20.0105C22.9316 19.8032 20.9743 18.8028 20.6086 18.6651C20.2442 18.5274 19.9789 18.4578 19.7123 18.8724C19.447 19.2856 18.6834 20.2179 18.4516 20.4934C18.2199 20.7688 17.9868 20.8036 17.5889 20.5963C17.191 20.389 15.9076 19.9535 14.387 18.5441C13.2041 17.4477 12.4043 16.0939 12.1725 15.6792C11.9407 15.266 12.1484 15.042 12.3466 14.8361C12.5262 14.651 12.7445 14.3533 12.9441 14.1112C13.1464 13.8719 13.2121 13.6993 13.3461 13.4225C13.4787 13.147 13.413 12.9049 13.3126 12.6976C13.2121 12.4916 12.4163 10.4561 12.0854 9.62821C11.7612 8.82262 11.433 8.93114 11.1891 8.91862L10.4255 8.90471C10.1603 8.90471 9.72888 9.00767 9.36448 9.42229C9.00008 9.83692 7.9712 10.8359 7.9712 12.8715C7.9712 14.907 9.39797 16.873 9.59625 17.1485C9.79586 17.424 12.4029 21.6009 16.3965 23.3916C17.3464 23.8173 18.0886 24.0719 18.666 24.2625C19.6199 24.577 20.488 24.5325 21.1739 24.4267C21.9389 24.3085 23.5291 23.4263 23.8613 22.4607C24.1936 21.4937 24.1936 20.6659 24.0931 20.4934Z" fill="#424040"/>
</svg>
