<svg width="42" height="32" viewBox="0 0 42 32" fill="none" xmlns="http://www.w3.org/2000/svg">
<path d="M41.5816 6.92899C41.5816 6.92899 41.1715 3.86015 39.9082 2.51265C38.3086 0.739156 36.5203 0.730462 35.7 0.626139C29.8266 0.174072 21.0082 0.174072 21.0082 0.174072H20.9918C20.9918 0.174072 12.1734 0.174072 6.3 0.626139C5.47969 0.730462 3.69141 0.739156 2.0918 2.51265C0.828516 3.86015 0.426562 6.92899 0.426562 6.92899C0.426562 6.92899 0 10.5368 0 14.136V17.5091C0 21.1082 0.418359 24.7161 0.418359 24.7161C0.418359 24.7161 0.828516 27.7849 2.08359 29.1324C3.6832 30.9059 5.7832 30.8451 6.71836 31.0363C10.0816 31.3754 21 31.4797 21 31.4797C21 31.4797 29.8266 31.4623 35.7 31.0189C36.5203 30.9146 38.3086 30.9059 39.9082 29.1324C41.1715 27.7849 41.5816 24.7161 41.5816 24.7161C41.5816 24.7161 42 21.1169 42 17.5091V14.136C42 10.5368 41.5816 6.92899 41.5816 6.92899ZM16.6605 21.6038V9.09369L28.0055 15.3705L16.6605 21.6038Z" fill="#424040"/>
</svg>
