<svg width="44" height="39" viewBox="0 0 44 39" fill="none" xmlns="http://www.w3.org/2000/svg">
<path d="M32.3592 5.39921H35.531C37.6289 5.39921 39.5354 6.26855 40.9164 7.66812C42.2972 9.06769 43.1549 11.0006 43.1549 13.1264V30.5139C43.1549 32.6402 42.2974 34.5725 40.9166 35.9721C39.5358 37.3719 37.6289 38.2412 35.531 38.2412H8.60826C6.51038 38.2412 4.60392 37.3719 3.2231 35.9721C1.84208 34.5725 0.984375 32.6402 0.984375 30.5139V13.1264C0.984375 11 1.84208 9.0675 3.2231 7.66793C4.60392 6.26816 6.51038 5.39921 8.60826 5.39921H11.7803C12.0801 4.41481 12.6657 3.54878 13.386 2.8487C14.6108 1.65759 16.2922 0.924561 17.5939 0.924561H26.5452C27.8469 0.924561 29.5285 1.65759 30.7531 2.8487C31.4732 3.54878 32.0589 4.41481 32.359 5.39921H32.3592ZM22.0696 12.4023C24.6349 12.4023 26.9584 13.4567 28.6398 15.1609C30.3213 16.8653 31.3616 19.2202 31.3616 21.8204C31.3616 24.4204 30.3213 26.7754 28.6398 28.4797C26.958 30.1839 24.6352 31.2383 22.0696 31.2383C19.504 31.2383 17.1812 30.1839 15.4995 28.4797C13.8182 26.7752 12.7779 24.4206 12.7779 21.8204C12.7779 19.22 13.8182 16.8655 15.4995 15.1609C17.1809 13.4567 19.5044 12.4023 22.0696 12.4023ZM26.6187 17.2097C25.4549 16.03 23.8464 15.3005 22.0696 15.3005C20.2931 15.3005 18.6844 16.03 17.5206 17.2097C16.3572 18.3893 15.6371 20.0197 15.6371 21.8204C15.6371 23.6209 16.3572 25.2516 17.5206 26.431C18.6844 27.6104 20.2931 28.3403 22.0696 28.3403C23.846 28.3403 25.4549 27.6104 26.6187 26.431C27.7825 25.2516 28.5022 23.6211 28.5022 21.8204C28.5022 20.0195 27.7825 18.3893 26.6187 17.2097ZM35.531 8.29722H31.1469C30.3575 8.29722 29.7174 7.64842 29.7174 6.84831C29.7174 6.13302 29.3212 5.46083 28.7764 4.93138C28.0709 4.24515 27.1824 3.82276 26.5454 3.82276H17.5941C16.9571 3.82276 16.0686 4.24515 15.3631 4.93138C14.8182 5.46102 14.4221 6.13302 14.4221 6.84831C14.4221 7.64842 13.782 8.29722 12.9926 8.29722H8.60846C7.29939 8.29722 6.10827 8.84109 5.24441 9.71668C4.38055 10.5925 3.84377 11.7997 3.84377 13.1266V30.514C3.84377 31.8405 4.38055 33.0482 5.24441 33.9238C6.10846 34.7993 7.29959 35.3434 8.60846 35.3434H35.5312C36.8403 35.3434 38.0318 34.7993 38.8955 33.9238C39.7595 33.048 40.2959 31.8409 40.2959 30.514V13.1266C40.2959 11.8001 39.7593 10.5925 38.8953 9.71707C38.0312 8.84129 36.8401 8.29722 35.5312 8.29722H35.531Z" fill="white"/>
</svg>
