<svg width="58" height="57" viewBox="0 0 58 57" fill="none" xmlns="http://www.w3.org/2000/svg">
<path d="M54.709 0.696778C54.2907 0.69657 53.8764 0.768235 53.4899 0.907676C53.1034 1.04712 52.7522 1.2516 52.4564 1.50943C52.1606 1.76726 51.926 2.07338 51.7661 2.4103C51.6061 2.74721 51.5239 3.1083 51.5241 3.47293V5.24056C48.838 8.14359 45.4431 10.488 41.5865 12.1032C37.73 13.7184 33.5087 14.5637 29.2301 14.5775H10.121C7.5878 14.58 5.15916 15.4582 3.36793 17.0196C1.5767 18.5809 0.569171 20.6979 0.566406 22.906V28.4583C0.569171 30.6664 1.5767 32.7834 3.36793 34.3448C5.15916 35.9061 7.5878 36.7844 10.121 36.7868H11.6618L4.00943 52.351C3.80147 52.7731 3.71704 53.2337 3.76372 53.6913C3.8104 54.1489 3.98673 54.5893 4.27687 54.9728C4.567 55.3563 4.96187 55.6711 5.42602 55.8887C5.89017 56.1064 6.40907 56.2202 6.93612 56.2198H19.6755C20.299 56.2202 20.9088 56.0607 21.4292 55.7614C21.9495 55.4621 22.3575 55.0361 22.6023 54.5363L31.277 36.8923C35.1964 37.1431 39.0153 38.0916 42.4977 39.6793C45.9801 41.267 49.0521 43.4601 51.5241 46.1232V47.8914C51.5241 48.6277 51.8597 49.3338 52.4569 49.8544C53.0542 50.375 53.8643 50.6675 54.709 50.6675C55.5537 50.6675 56.3637 50.375 56.961 49.8544C57.5583 49.3338 57.8938 48.6277 57.8938 47.8914V3.47293C57.8941 3.1083 57.8119 2.74721 57.6519 2.41029C57.4919 2.07338 57.2573 1.76725 56.9615 1.50942C56.6658 1.25159 56.3146 1.04711 55.9281 0.907669C55.5415 0.768229 55.1273 0.696566 54.709 0.696778ZM10.121 31.2345C9.27647 31.234 8.46672 30.9413 7.86957 30.4208C7.27241 29.9003 6.93669 29.1944 6.93612 28.4583V22.906C6.93669 22.1699 7.27243 21.464 7.86958 20.9435C8.46673 20.423 9.27648 20.1303 10.121 20.1298H13.3058V31.2345H10.121ZM17.5762 50.6675H11.7663L18.5901 36.7868H24.4L17.5762 50.6675ZM51.5241 38.2354C45.2444 33.7258 37.3664 31.2519 29.2301 31.2343H19.6755V20.1297H29.2301C37.3665 20.1116 45.2445 17.6372 51.5241 13.1273V38.2354Z" fill="#9835EF"/>
</svg>
