<svg width="54" height="54" viewBox="0 0 54 54" fill="none" xmlns="http://www.w3.org/2000/svg">
<path d="M51.4974 3.15468C49.8835 1.57588 47.7012 0.689819 45.4265 0.689819C43.1519 0.689819 40.9695 1.57588 39.3557 3.15468L2.25939 39.6913C1.91143 40.0452 1.68257 40.496 1.60392 40.9825L0.0276834 51.2349C-0.0240628 51.5633 -0.0030945 51.8989 0.0891509 52.2187C0.181396 52.5384 0.342738 52.8347 0.562117 53.0872C0.781497 53.3398 1.05373 53.5427 1.36015 53.6819C1.66658 53.8212 1.99995 53.8936 2.33742 53.8941H2.69637L13.0902 52.357C13.5841 52.2795 14.0418 52.0541 14.4011 51.7114L51.4974 15.1132C53.1004 13.5237 54 11.3743 54 9.13396C54 6.89361 53.1004 4.74419 51.4974 3.15468ZM11.6388 47.8533L5.13096 48.8217L6.11415 42.412L36.5777 12.4233L42.0868 17.8493L11.6388 47.8533ZM48.1888 11.8546L44.3029 15.682L38.7782 10.2407L42.6642 6.41331C43.3968 5.69175 44.3904 5.28638 45.4265 5.28638C46.4626 5.28638 47.4562 5.69175 48.1888 6.41331C48.9215 7.13487 49.333 8.11352 49.333 9.13396C49.333 10.1544 48.9215 11.1331 48.1888 11.8546Z" fill="#76B30F"/>
</svg>
